<?xml version="1.0" encoding="UTF-8"?>
<svg id="BACKGROUND" xmlns="http://www.w3.org/2000/svg" viewBox="0 0 135.4 126.39">
  <defs>
    <style>
      .cls-1 {
        fill: #f2277e;
      }

      .cls-1, .cls-2, .cls-3 {
        stroke-width: 0px;
      }

      .cls-2 {
        fill: #ffbb01;
      }

      .cls-3 {
        fill: #592adf;
      }
    </style>
  </defs>
  <g>
    <path class="cls-3" d="M4.14,37.08c-3.84,2.56-6.1,7.97-1.85,14.44,4.25,6.47,64.92,50.16,67.15,51.37,2.22,1.21,4.45,1.42,10.11-2.83,5.66-4.25,52.98-37.43,54.2-38.43,1.94-1.59,2.43-5.46,0-7.28,0,0-57.32,40.04-59.2,41.66-1.88,1.62-4.8-1.01-4.25-4.45.55-3.44.96-3.84,8.24-9.1,7.28-5.26,48.56-34.46,50.44-35.76,2.12-1.46,2.17-4.05-1.3-6.33-4.83-3.18-57.03-37.83-58.77-39.04-1.75-1.21-4.17-2.32-7.81.11-3.64,2.43-49.88,30.94-56.95,35.63Z"/>
    <path class="cls-2" d="M69.44,107.15c-1.46-.8-28.08-19.88-47.42-34.73v30.98c-.02,22.61,68.23,34.69,90.84,6.9v-29.61c-13.89,9.8-30.13,21.26-33.31,23.64-5.66,4.25-7.89,4.04-10.11,2.83Z"/>
  </g>
  <path class="cls-1" d="M98.32,73.19s10.15,4.76,10.87,23.93l-4.92-1.27-3.93,7.8c-1.66-20.98-10.72-24.03-10.72-24.03l8.71-6.43Z"/>
</svg>